<?xml version="1.0" encoding="utf-8" ?>
<svg baseProfile="tiny" height="1000mm" version="1.2" viewBox="0 0 1000 1000" width="1000mm" xmlns="http://www.w3.org/2000/svg" xmlns:ev="http://www.w3.org/2001/xml-events" xmlns:xlink="http://www.w3.org/1999/xlink">
  <defs/>
  <g id="Mercury">
    <text>Mercury</text>
    <rect height="37.4" width="20.0" x="10" y="10"/>
    <rect height="35.2" width="21.25" x="10" y="10"/>
    <rect height="34.0" width="22.0" x="10" y="10"/>
    <rect height="29.92" width="25.0" x="10" y="10"/>
    <rect height="27.5" width="27.2" x="10" y="10"/>
  </g>
  <g id="Venus">
    <text>Venus</text>
    <rect height="87.0" width="52.9" x="10" y="10"/>
    <rect height="86.25" width="53.36" x="10" y="10"/>
    <rect height="80.04" width="57.5" x="10" y="10"/>
    <rect height="72.5" width="63.48" x="10" y="10"/>
    <rect height="69.0" width="66.7" x="10" y="10"/>
  </g>
  <g id="Earth">
    <text>Earth</text>
    <rect height="92.74" width="55.0" x="10" y="10"/>
  </g>
  <g id="Moon">
    <text>Moon</text>
  </g>
  <g id="Mars">
    <text>Mars</text>
    <rect height="50.0" width="28.96" x="10" y="10"/>
    <rect height="45.25" width="32.0" x="10" y="10"/>
    <rect height="40.0" width="36.2" x="10" y="10"/>
  </g>
  <g id="Jupiter">
    <text>Jupiter</text>
    <rect height="1000.0" width="614.0" x="10" y="10"/>
    <rect height="982.4" width="625.0" x="10" y="10"/>
    <rect height="800.0" width="767.5" x="10" y="10"/>
    <rect height="785.92" width="781.25" x="10" y="10"/>
  </g>
  <g id="Saturn">
    <text>Saturn</text>
    <rect height="875.0" width="488.0" x="10" y="10"/>
    <rect height="854.0" width="500.0" x="10" y="10"/>
    <rect height="800.0" width="533.75" x="10" y="10"/>
    <rect height="762.5" width="560.0" x="10" y="10"/>
    <rect height="700.0" width="610.0" x="10" y="10"/>
    <rect height="683.2" width="625.0" x="10" y="10"/>
  </g>
  <g id="Uranus">
    <text>Uranus</text>
    <rect height="400.0" width="202.89" x="10" y="10"/>
    <rect height="338.15" width="240.0" x="10" y="10"/>
    <rect height="300.0" width="270.52" x="10" y="10"/>
  </g>
  <g id="Neptune">
    <text>Neptune</text>
    <rect height="370.0" width="205.9" x="10" y="10"/>
    <rect height="362.5" width="210.16" x="10" y="10"/>
    <rect height="355.0" width="214.6" x="10" y="10"/>
    <rect height="329.44" width="231.25" x="10" y="10"/>
    <rect height="290.0" width="262.7" x="10" y="10"/>
    <rect height="284.0" width="268.25" x="10" y="10"/>
  </g>
</svg>
